<?xml version="1.0" encoding="utf-8"?>
<!-- Generator: Adobe Illustrator 18.0.0, SVG Export Plug-In . SVG Version: 6.00 Build 0)  -->
<!DOCTYPE svg PUBLIC "-//W3C//DTD SVG 1.1//EN" "http://www.w3.org/Graphics/SVG/1.1/DTD/svg11.dtd">
<svg version="1.1" id="Capa_1" xmlns="http://www.w3.org/2000/svg" xmlns:xlink="http://www.w3.org/1999/xlink" x="0px" y="0px"
	 width="12px" height="12px" viewBox="0.9 0 12 12" enable-background="new 0.9 0 12 12" xml:space="preserve">
<g>
	<path fill="#B2B3B6" d="M12.8,2.6c-0.1-0.2-0.4-0.3-0.5-0.2l-1.5,1.4c-0.3,0.3-0.8,0.3-1.2,0L9,3.2C8.6,2.9,8.6,2.4,9,2.1l1.4-1.4
		c0.2-0.2,0.1-0.5-0.2-0.5C9.9,0,9.5,0,9.2,0C7.6,0.1,6.1,1.6,6,3.2c0,0.6,0.1,1.2,0.3,1.7l-5,4.3C1,9.4,0.9,9.7,0.9,10
		s0.1,0.6,0.3,0.8l0.9,0.9C2.3,11.9,2.6,12,2.9,12s0.6-0.1,0.8-0.4l4.4-5.1c0.5,0.2,1,0.3,1.6,0.3c1.6-0.1,3.1-1.6,3.2-3.2
		C12.9,3.3,12.9,2.9,12.8,2.6z"/>
</g>
</svg>
