<?xml version="1.0" encoding="utf-8"?>
<!-- Generator: Adobe Illustrator 18.0.0, SVG Export Plug-In . SVG Version: 6.00 Build 0)  -->
<!DOCTYPE svg PUBLIC "-//W3C//DTD SVG 1.1//EN" "http://www.w3.org/Graphics/SVG/1.1/DTD/svg11.dtd">
<svg version="1.1" id="Layer_1" xmlns="http://www.w3.org/2000/svg" xmlns:xlink="http://www.w3.org/1999/xlink" x="0px" y="0px"
	 width="20px" height="20px" viewBox="0 0 20 20" enable-background="new 0 0 20 20" xml:space="preserve">
<circle fill="#B2B3B6" cx="10" cy="10" r="10"/>
<g>
	<path fill="#F6F6F6" d="M4.7,11.4l4.6,4.2c0.4,0.3,0.9,0.3,1.3,0l4.6-4.2c0.4-0.3,0.4-0.9,0-1.2c-0.4-0.3-0.9-0.3-1.3,0l-3,2.8V4.9
		c0-0.5-0.4-0.8-0.9-0.8S9,4.4,9,4.9v8.1l-3-2.8C5.9,10,5.6,9.9,5.4,9.9c-0.2,0-0.5,0.1-0.6,0.2C4.4,10.5,4.4,11,4.7,11.4z"/>
</g>
</svg>
