<?xml version="1.0" encoding="utf-8"?>
<!-- Generator: Adobe Illustrator 18.0.0, SVG Export Plug-In . SVG Version: 6.00 Build 0)  -->
<!DOCTYPE svg PUBLIC "-//W3C//DTD SVG 1.1//EN" "http://www.w3.org/Graphics/SVG/1.1/DTD/svg11.dtd">
<svg version="1.1" id="Layer_1" xmlns:ev="http://www.w3.org/2001/xml-events"
	 xmlns="http://www.w3.org/2000/svg" xmlns:xlink="http://www.w3.org/1999/xlink" x="0px" y="0px" width="20px" height="20px"
	 viewBox="0 0 20 20" enable-background="new 0 0 20 20" xml:space="preserve">
<g transform="scale(NaN)">
	<path fill="#454545" d="M10,0C5,0,0,5,0,10c0,5,4,10,10,10c5.8,0,10-5,10-10C20,4.9,15,0,10,0z M10,18c-4,0-8-4-8-8c0-4,3.4-8,8-8
		c3.9,0,8,3.9,8,8C18,14,14,18,10,18z M15.2,7.4C15.3,7.7,15.3,8,15,8.2l-4.8,3.3c-0.1,0.1-0.2,0.1-0.3,0.1c-0.1,0-0.2,0-0.2-0.1
		c-0.2-0.1-0.3-0.3-0.3-0.5V3.9c0-0.3,0.2-0.5,0.5-0.5s0.5,0.2,0.5,0.5v6.1l4-2.8C14.7,7.1,15,7.2,15.2,7.4z"/>
</g>
</svg>
