<?xml version="1.0" encoding="utf-8"?>
<!-- Generator: Adobe Illustrator 18.0.0, SVG Export Plug-In . SVG Version: 6.00 Build 0)  -->
<!DOCTYPE svg PUBLIC "-//W3C//DTD SVG 1.1//EN" "http://www.w3.org/Graphics/SVG/1.1/DTD/svg11.dtd">
<svg version="1.1" id="Capa_1" xmlns="http://www.w3.org/2000/svg" xmlns:xlink="http://www.w3.org/1999/xlink" x="0px" y="0px"
	 width="12px" height="12px" viewBox="26.8 0 12 12" enable-background="new 26.8 0 12 12" xml:space="preserve">
<g>
	<g>
		<path fill="#F9A500" d="M29.5,4h2.9c0.4,0,0.7-0.3,0.7-0.7s-0.3-0.7-0.7-0.7h-2.9c-0.4,0-0.7,0.3-0.7,0.7C28.8,3.7,29.1,4,29.5,4z
			"/>
		<path fill="#F9A500" d="M29.5,6.9h6.2c0.4,0,0.7-0.3,0.7-0.7c0-0.4-0.3-0.7-0.7-0.7h-6.2c-0.4,0-0.7,0.3-0.7,0.7
			C28.8,6.6,29.1,6.9,29.5,6.9z"/>
		<path fill="#F9A500" d="M36,8.2h-6.4c-0.4,0-0.7,0.3-0.7,0.7c0,0.4,0.3,0.7,0.7,0.7H36c0.4,0,0.7-0.3,0.7-0.7
			C36.7,8.5,36.4,8.2,36,8.2z"/>
		<path fill="#F9A500" d="M35.8,0h-7.4c-0.9,0-1.6,0.7-1.6,1.5v9.1c0,0.8,0.7,1.5,1.6,1.5h8.7c0.9,0,1.6-0.7,1.6-1.5V2.7L35.8,0z
			 M37.1,11h-8.7c-0.3,0-0.5-0.2-0.5-0.4V1.5c0-0.2,0.2-0.4,0.5-0.4h6.9v1.2c0,0.5,0.5,0.9,1,0.9l1.3,0v7.4
			C37.6,10.8,37.4,11,37.1,11z"/>
	</g>
</g>
</svg>
