<svg xmlns="http://www.w3.org/2000/svg" width="20" height="20" viewbox="0 0 20 20">
  <path fill="#9E6565" d="M18.6 7.7v-2.7l-2.3-1.3-1.3-2.3h-2.7l-2.3-1.4-2.3 1.4h-2.7l-1.3 2.3-2.3 1.3v2.7l-1.4 2.3 1.3 2.3v2.7l2.3 1.3 1.4 2.3h2.7l2.3 1.4 2.3-1.3h2.7l1.3-2.3 2.3-1.3v-2.7l1.4-2.4-1.4-2.3zm-3.9 5.1c.4.4.4 1.1 0 1.5l-.4.4c-.4.4-1.1.4-1.5 0l-2.8-2.8-2.8 2.8c-.4.4-1.1.4-1.5 0l-.4-.4c-.4-.4-.4-1.1 0-1.5l2.8-2.8-2.8-2.8c-.4-.4-.4-1.1 0-1.5l.4-.4c.4-.4 1.1-.4 1.5 0l2.8 2.8 2.8-2.8c.4-.4 1.1-.4 1.5 0l.4.4c.4.4.4 1.1 0 1.5l-2.8 2.8 2.8 2.8z"/>
</svg>
