<?xml version="1.0" encoding="utf-8"?>
<!-- Generator: Adobe Illustrator 18.0.0, SVG Export Plug-In . SVG Version: 6.00 Build 0)  -->
<!DOCTYPE svg PUBLIC "-//W3C//DTD SVG 1.1//EN" "http://www.w3.org/Graphics/SVG/1.1/DTD/svg11.dtd">
<svg version="1.1" id="Layer_1" xmlns="http://www.w3.org/2000/svg" xmlns:xlink="http://www.w3.org/1999/xlink" x="0px" y="0px"
	 width="40px" height="40px" viewBox="0 0 40 40" enable-background="new 0 0 40 40" xml:space="preserve">
<path fill="#B2B3B6" d="M32.5,27.5H30c-2.8,0-5-2.2-5-5v-1.6c1.1-1.3,1.9-2.9,2.4-4.5c0.1-0.3,0.3-0.4,0.5-0.6c1-1,1.1-2.6,0.4-3.7
	c-0.1-0.2-0.3-0.3-0.3-0.5c0-1.5,0-2.9,0-4.4c0-1.8-0.5-3.6-1.8-4.9c-1-1.1-2.4-1.7-3.8-2c-1.8-0.3-3.7-0.3-5.4,0.1
	c-1.5,0.4-3,1.3-3.9,2.6c-0.8,1.2-1.1,2.6-1.2,4c0,1.5,0,3,0,4.5c0,0.3-0.2,0.5-0.3,0.7c-0.7,1.2-0.4,2.9,0.7,3.8
	c0.3,0.2,0.3,0.5,0.4,0.8c0.5,1.5,1.3,2.8,2.3,4v1.7c0,2.8-2.2,5-5,5H7.5c0,0-4.5,1.3-7.5,7.5v2.5C0,38.9,1.1,40,2.5,40h35
	c1.4,0,2.5-1.1,2.5-2.5V35C37,28.8,32.5,27.5,32.5,27.5z"/>
</svg>
