<svg xmlns="http://www.w3.org/2000/svg" width="40" height="40" viewbox="0 0 40 40">
  <path fill="#B2B3B6" d="M32.5 27.5h-2.5c-2.8 0-5-2.2-5-5v-1.6c1.1-1.3 1.9-2.9 2.4-4.5.1-.3.3-.4.5-.6 1-1 1.1-2.6.4-3.7-.1-.2-.3-.3-.3-.5v-4.4c0-1.8-.5-3.6-1.8-4.9-1-1.1-2.4-1.7-3.8-2-1.8-.3-3.7-.3-5.4.1-1.5.4-3 1.3-3.9 2.6-.8 1.2-1.1 2.6-1.2 4v4.5c0 .3-.2.5-.3.7-.7 1.2-.4 2.9.7 3.8.3.2.3.5.4.8.5 1.5 1.3 2.8 2.3 4v1.7c0 2.8-2.2 5-5 5h-2.5s-4.5 1.3-7.5 7.5v2.5c0 1.4 1.1 2.5 2.5 2.5h35c1.4 0 2.5-1.1 2.5-2.5v-2.5c-3-6.2-7.5-7.5-7.5-7.5z"/>
</svg>