<?xml version="1.0" encoding="utf-8"?>
<!-- Generator: Adobe Illustrator 18.0.0, SVG Export Plug-In . SVG Version: 6.00 Build 0)  -->
<!DOCTYPE svg PUBLIC "-//W3C//DTD SVG 1.1//EN" "http://www.w3.org/Graphics/SVG/1.1/DTD/svg11.dtd">
<svg version="1.1" id="Layer_1" xmlns:ev="http://www.w3.org/2001/xml-events"
	 xmlns="http://www.w3.org/2000/svg" xmlns:xlink="http://www.w3.org/1999/xlink" x="0px" y="0px" width="20px" height="20px"
	 viewBox="0 0 20 20" enable-background="new 0 0 20 20" xml:space="preserve">
<g transform="scale(NaN)">
	<path fill="#454545" d="M10,20C5,20,0,15,0,10C0,5,5,0,10,0c5,0,10,5,10,10C20,15,15,20,10,20z M10,2c-4,0-8,4-8,8c0,4,4,8,8,8
		c4,0,8-4,8-8C18,6,13.9,2,10,2z M15.9,7.2l-4.5,5.7c-0.1,0.1-0.2,0.2-0.4,0.2c-0.2,0-0.3,0-0.4-0.2l-3-3l-2.9,3.8
		C4.7,13.9,4.5,14,4.4,14c-0.1,0-0.2,0-0.3-0.1c-0.2-0.2-0.3-0.5-0.1-0.7l3.2-4.3c0.1-0.1,0.2-0.2,0.4-0.2c0.2,0,0.3,0,0.4,0.2l3,3
		l4.2-5.2c0.2-0.2,0.5-0.3,0.7-0.1C16.1,6.7,16.1,7,15.9,7.2z"/>
</g>
</svg>
