<?xml version="1.0" encoding="utf-8"?>
<!-- Generator: Adobe Illustrator 18.0.0, SVG Export Plug-In . SVG Version: 6.00 Build 0)  -->
<!DOCTYPE svg PUBLIC "-//W3C//DTD SVG 1.1//EN" "http://www.w3.org/Graphics/SVG/1.1/DTD/svg11.dtd">
<svg version="1.1" id="Layer_1" xmlns="http://www.w3.org/2000/svg" xmlns:xlink="http://www.w3.org/1999/xlink" x="0px" y="0px"
	 width="30px" height="30px" viewBox="0 0 30 30" enable-background="new 0 0 30 30" xml:space="preserve">
<path fill="#6C9E65" d="M27.9,7.5l-3.4-2l-2-3.5h-4L15,0l-3.5,2.1h-4l-2,3.5l-3.5,2v4L0,15l2,3.4v4.1l3.4,1.9l2.1,3.4h4L15,30
	l3.5-1.9h4l2-3.4l3.4-2v-4L30,15l-1.9-3.5L27.9,7.5z M13.7,21.2c-0.3,0.3-0.6,0.5-1,0.5c-0.3,0-0.8-0.2-1.1-0.5l-4.4-4.4
	c-0.6-0.6-0.6-1.5,0-1.9l1.2-1.2c0.6-0.6,1.5-0.6,1.9,0l2.2,2.2L19.5,9c0.6-0.6,1.5-0.6,2,0l1.2,1.2c0.6,0.6,0.6,1.5,0,1.9
	L13.7,21.2z"/>
</svg>
