<?xml version="1.0" encoding="utf-8"?>
<!-- Generator: Adobe Illustrator 18.0.0, SVG Export Plug-In . SVG Version: 6.00 Build 0)  -->
<!DOCTYPE svg PUBLIC "-//W3C//DTD SVG 1.1//EN" "http://www.w3.org/Graphics/SVG/1.1/DTD/svg11.dtd">
<svg version="1.1" id="Capa_1" xmlns="http://www.w3.org/2000/svg" xmlns:xlink="http://www.w3.org/1999/xlink" x="0px" y="0px"
	 width="17.8px" height="13.8px" viewBox="52 48.5 17.8 13.8" enable-background="new 52 48.5 17.8 13.8" xml:space="preserve">
<g>
	<g>
		<path fill="#282828" d="M69.5,56c0.2-0.2,0.3-0.4,0.3-0.6c0-0.2-0.1-0.5-0.3-0.6l-6-6c-0.3-0.3-0.9-0.3-1.2,0l-0.8,0.8
			c-0.3,0.3-0.3,0.9,0,1.2l3.1,3.1H52.9c-0.5,0-0.9,0.4-0.9,0.9V56c0,0.5,0.4,0.9,0.9,0.9h11.6L61.4,60c-0.3,0.3-0.3,0.9,0,1.2
			l0.8,0.8c0.3,0.3,0.9,0.3,1.2,0L69.5,56z"/>
	</g>
</g>
</svg>
