<?xml version="1.0" encoding="utf-8"?>
<!-- Generator: Adobe Illustrator 18.0.0, SVG Export Plug-In . SVG Version: 6.00 Build 0)  -->
<!DOCTYPE svg PUBLIC "-//W3C//DTD SVG 1.1//EN" "http://www.w3.org/Graphics/SVG/1.1/DTD/svg11.dtd">
<svg version="1.1" id="Layer_1" xmlns:ev="http://www.w3.org/2001/xml-events"
	 xmlns="http://www.w3.org/2000/svg" xmlns:xlink="http://www.w3.org/1999/xlink" x="0px" y="0px" width="18px" height="18px"
	 viewBox="0 0 18 18" enable-background="new 0 0 18 18" xml:space="preserve">
<g transform="scale(NaN)">
	<path fill="#E0E2E6" d="M14,0H4C2,0,0,2,0,4v10c0,2,2,4,4,4h10c2,0,4-2,4-4V4C18,2,16,0,14,0z M16,13c0,2-1,3-3,3c0,0-6,0-8,0
		s-3-1-3-3V5c0-2,1-3,3-3c1.5,0,6,0,8,0s3,1,3,3C16,5,16,11,16,13z"/>
</g>
</svg>
