<?xml version="1.0" encoding="utf-8"?> <!-- Generated by Layerhero SVG Exporter: http://www.layerhero.com/photoshop-svg-exporter --><!DOCTYPE svg PUBLIC "-//W3C//DTD SVG 1.1//EN" "http://www.w3.org/Graphics/SVG/1.1/DTD/svg11.dtd"><svg version="1.1" baseProfile="full" xmlns="http://www.w3.org/2000/svg" xmlns:xlink="http://www.w3.org/1999/xlink" xmlns:ev="http://www.w3.org/2001/xml-events" width="18" height="18" viewBox="0 0 18 18"><g transform="scale(NaN)" ><path fill-rule="evenodd"  fill="rgb( 186, 186, 186 )" d="M14.000,-0.000 C14.000,-0.000 4.000,-0.000 4.000,-0.000 C2.000,-0.000 -0.000,2.000 -0.000,4.000 C-0.000,4.000 -0.000,14.000 -0.000,14.000 C-0.000,16.000 2.000,18.000 4.000,18.000 C4.000,18.000 14.000,18.000 14.000,18.000 C16.000,18.000 18.000,16.000 18.000,14.000 C18.000,14.000 18.000,4.000 18.000,4.000 C18.000,2.000 16.000,-0.000 14.000,-0.000 ZM16.000,13.000 C16.000,14.994 14.971,16.000 13.000,16.000 C13.000,16.000 7.018,16.000 5.000,16.000 C2.982,16.000 2.000,14.997 2.000,13.000 C2.000,13.000 2.000,5.000 2.000,5.000 C2.000,2.984 2.985,2.000 5.000,2.000 C6.496,2.000 10.985,2.000 13.000,2.000 C15.015,2.000 16.000,2.958 16.000,5.000 C16.000,5.000 16.000,11.006 16.000,13.000 Z"/></g></svg>