<?xml version="1.0" encoding="utf-8"?>
<!-- Generator: Adobe Illustrator 18.0.0, SVG Export Plug-In . SVG Version: 6.00 Build 0)  -->
<!DOCTYPE svg PUBLIC "-//W3C//DTD SVG 1.1//EN" "http://www.w3.org/Graphics/SVG/1.1/DTD/svg11.dtd">
<svg version="1.1" id="Capa_1" xmlns="http://www.w3.org/2000/svg" xmlns:xlink="http://www.w3.org/1999/xlink" x="0px" y="0px"
	 width="12px" height="12px" viewBox="88.5 0 12 12" enable-background="new 88.5 0 12 12" xml:space="preserve">
<g>
	<path fill="#F6F6F6" d="M90.1,6.8h-1.5h0v3.8l1.1-1c1.1,1.5,2.9,2.5,4.9,2.5c3.1,0,5.6-2.3,6-5.2h-1.5c-0.4,2.1-2.2,3.8-4.4,3.8
		c-1.6,0-3-0.8-3.8-2l1.9-1.7H90.1z"/>
	<path fill="#F6F6F6" d="M94.5,0c-3.1,0-5.6,2.3-6,5.2h1.5c0.4-2.1,2.2-3.8,4.4-3.8c1.6,0,3.1,0.9,3.8,2.2l-1.6,1.6h1.5h0.7h1.5h0
		V1.5l-1.1,1.1C98.3,1,96.5,0,94.5,0z"/>
</g>
</svg>
