<?xml version="1.0" encoding="utf-8"?>
<!-- Generator: Adobe Illustrator 18.0.0, SVG Export Plug-In . SVG Version: 6.00 Build 0)  -->
<!DOCTYPE svg PUBLIC "-//W3C//DTD SVG 1.1//EN" "http://www.w3.org/Graphics/SVG/1.1/DTD/svg11.dtd">
<svg version="1.1" id="Capa_1" xmlns="http://www.w3.org/2000/svg" xmlns:xlink="http://www.w3.org/1999/xlink" x="0px" y="0px"
	 width="11px" height="12.1px" viewBox="26.8 0 11 12.1" enable-background="new 26.8 0 11 12.1" xml:space="preserve">
<g>
	<g>
		<path fill="#F9A500" d="M29.3,4H32c0.4,0,0.7-0.3,0.7-0.7S32.4,2.7,32,2.7h-2.7c-0.4,0-0.7,0.3-0.7,0.7C28.6,3.7,28.9,4,29.3,4z"
			/>
		<path fill="#F9A500" d="M29.3,6.9h5.6c0.4,0,0.7-0.3,0.7-0.7c0-0.4-0.3-0.7-0.7-0.7h-5.6c-0.4,0-0.7,0.3-0.7,0.7
			C28.6,6.6,28.9,6.9,29.3,6.9z"/>
		<path fill="#F9A500" d="M35.2,8.2h-5.9c-0.4,0-0.7,0.3-0.7,0.7s0.3,0.7,0.7,0.7h5.9c0.4,0,0.7-0.3,0.7-0.7S35.6,8.2,35.2,8.2z"/>
		<path fill="#F9A500" d="M35.1,0h-6.8c-0.8,0-1.5,0.7-1.5,1.5v9.1c0,0.8,0.7,1.5,1.5,1.5h8c0.8,0,1.5-0.7,1.5-1.5V2.7L35.1,0z
			 M36.3,11h-8c-0.2,0-0.4-0.2-0.4-0.4V1.5C27.8,1.2,28,1,28.3,1h6.3v1.2c0,0.5,0.4,0.9,1,0.9h1.2v7.4C36.7,10.8,36.5,11,36.3,11z"
			/>
	</g>
</g>
</svg>
