<?xml version="1.0" encoding="utf-8"?>
<!-- Generator: Adobe Illustrator 18.0.0, SVG Export Plug-In . SVG Version: 6.00 Build 0)  -->
<!DOCTYPE svg PUBLIC "-//W3C//DTD SVG 1.1//EN" "http://www.w3.org/Graphics/SVG/1.1/DTD/svg11.dtd">
<svg version="1.1" id="Capa_1" xmlns="http://www.w3.org/2000/svg" xmlns:xlink="http://www.w3.org/1999/xlink" x="0px" y="0px"
	 width="22px" height="16px" viewBox="88.5 8.1 22 16" enable-background="new 88.5 8.1 22 16" xml:space="preserve">
<g>
	<g>
		<path fill="#B2B3B6" d="M94.6,12.3h11.3v-0.7c0-0.6-0.5-1.1-1.1-1.1h-4.7V9.8c0-0.9-0.7-1.7-1.6-1.7h-2.7c-0.4,0-0.8,0.2-1.1,0.5
			c-0.3,0.3-0.5,0.7-0.5,1.2v0.6h-4.7c-0.6,0-1.1,0.5-1.1,1.1v9.9l3.6-7.6C92.5,13,93.6,12.3,94.6,12.3z M95.3,9.8
			c0-0.1,0.1-0.3,0.2-0.4c0.1-0.1,0.2-0.2,0.4-0.2h2.7c0.3,0,0.5,0.2,0.5,0.6v0.6h-3.8V9.8z"/>
		<path fill="#B2B3B6" d="M109.8,13.4H94.6c-0.6,0-1.3,0.4-1.5,1l-4.1,8.7c-0.3,0.5,0,1,0.6,1h15.3c0.6,0,1.3-0.4,1.5-1l4.1-8.7
			C110.7,13.9,110.4,13.4,109.8,13.4z"/>
	</g>
</g>
</svg>
