<svg xmlns="http://www.w3.org/2000/svg" viewBox="0 -40 120 120" enable-background="new 0 -40 120 120" width="120" height="120">
  <path fill="#E0E2E6" d="M60-40c-33.1 0-60 26.9-60 60s26.9 60 60 60 60-26.9 60-60-26.9-60-60-60zm0 107.5c-26.2 0-47.5-21.3-47.5-47.5s21.3-47.5 47.5-47.5 47.5 21.3 47.5 47.5-21.3 47.5-47.5 47.5zm15.6-70.9c-5.2 0-9.4 4.9-9.4 10.9s4.2 10.9 9.4 10.9 9.4-4.9 9.4-10.9-4.2-10.9-9.4-10.9zm-31.2 21.8c5.2 0 9.4-4.9 9.4-10.9s-4.3-10.9-9.4-10.9-9.4 4.9-9.4 10.9 4.2 10.9 9.4 10.9zm34.4 15.7h-37.6c-2.6 0-4.7 2.1-4.7 4.7s2.1 4.7 4.7 4.7h37.5c2.6 0 4.7-2.1 4.7-4.7s-2.1-4.7-4.6-4.7z"/>
</svg>
