<?xml version="1.0" encoding="utf-8"?>
<!-- Generator: Adobe Illustrator 18.0.0, SVG Export Plug-In . SVG Version: 6.00 Build 0)  -->
<!DOCTYPE svg PUBLIC "-//W3C//DTD SVG 1.1//EN" "http://www.w3.org/Graphics/SVG/1.1/DTD/svg11.dtd">
<svg version="1.1" id="Layer_1" xmlns:ev="http://www.w3.org/2001/xml-events"
	 xmlns="http://www.w3.org/2000/svg" xmlns:xlink="http://www.w3.org/1999/xlink" x="0px" y="0px" width="20px" height="20px"
	 viewBox="0 0 20 20" enable-background="new 0 0 20 20" xml:space="preserve">
<g transform="scale(NaN)">
	<path fill="#454545" d="M18.6,12.3V15l-2.3,1.3L15,18.6h-2.7L10,20l-2.3-1.3H5l-1.3-2.3L1.4,15v-2.7L0,10l1.3-2.3V5l2.3-1.3L5,1.4
		h2.7L10,0l2.3,1.3H15l1.3,2.3L18.6,5l0,0v2.7L20,10L18.6,12.3z M8,3l1,9h2l1-9H8z M10,13c-1,0-2,1-2,2s1,2,2,2s2-1,2-2S11,13,10,13
		z"/>
</g>
</svg>
