<?xml version="1.0" encoding="utf-8"?>
<!-- Generator: Adobe Illustrator 18.0.0, SVG Export Plug-In . SVG Version: 6.00 Build 0)  -->
<!DOCTYPE svg PUBLIC "-//W3C//DTD SVG 1.1//EN" "http://www.w3.org/Graphics/SVG/1.1/DTD/svg11.dtd">
<svg version="1.1" id="Layer_1" xmlns="http://www.w3.org/2000/svg" xmlns:xlink="http://www.w3.org/1999/xlink" x="0px" y="0px"
	 width="20px" height="20px" viewBox="0 0 20 20" enable-background="new 0 0 20 20" xml:space="preserve">
<path fill="#454545" d="M18.6,7.7V5l-2.3-1.3L15,1.4h-2.7L10,0L7.7,1.4H5L3.7,3.7L1.4,5v2.7L0,10l1.3,2.3V15l2.3,1.3L5,18.6h2.7
	L10,20l2.3-1.3H15l1.3-2.3l2.3-1.3v-2.7L20,10L18.6,7.7z M14.7,12.8c0.4,0.4,0.4,1.1,0,1.5l-0.4,0.4c-0.4,0.4-1.1,0.4-1.5,0L10,11.9
	l-2.8,2.8c-0.4,0.4-1.1,0.4-1.5,0l-0.4-0.4c-0.4-0.4-0.4-1.1,0-1.5L8.1,10L5.3,7.2c-0.4-0.4-0.4-1.1,0-1.5l0.4-0.4
	c0.4-0.4,1.1-0.4,1.5,0L10,8.1l2.8-2.8c0.4-0.4,1.1-0.4,1.5,0l0.4,0.4c0.4,0.4,0.4,1.1,0,1.5L11.9,10C11.9,10,14.7,12.8,14.7,12.8z"
	/>
</svg>
