<svg xmlns="http://www.w3.org/2000/svg" viewBox="0 0 12 12" enable-background="new 0 0 12 12" width="12" height="12">
  <path fill="#F6F6F6" d="M8.6 8.9c-.6 0-1.1.4-1.4.9h-2.2c-.5 0-1-.4-1-1v-2.4c.3.1.6.2 1 .2h2.1c.2.5.8.9 1.4.9.8 0 1.5-.7 1.5-1.5s-.6-1.5-1.4-1.5c-.6 0-1.1.4-1.4.9h-2.2c-.5 0-1-.4-1-1v-1.5c.6-.2 1-.8 1-1.4 0-.8-.7-1.5-1.6-1.5s-1.5.7-1.5 1.5c0 .6.4 1.1.9 1.4v6c0 1.2 1 2.2 2.2 2.2h2.1c.3.5.8.9 1.5.9.8 0 1.5-.7 1.5-1.5s-.7-1.6-1.5-1.6zm0-3.8c.4 0 .8.4.8.9s-.4.9-.9.9c-.4 0-.8-.4-.8-.9s.4-.9.9-.9zm-5.2-4.5c.5 0 .9.4.9.9s-.4.9-.9.9c-.4 0-.8-.4-.8-.9s.4-.9.8-.9zm5.2 10.8c-.5 0-.9-.4-.9-.9s.4-.9.9-.9.9.4.9.9c-.1.5-.5.9-.9.9z"/>
</svg>
