<?xml version="1.0" encoding="utf-8"?>
<!-- Generator: Adobe Illustrator 18.0.0, SVG Export Plug-In . SVG Version: 6.00 Build 0)  -->
<!DOCTYPE svg PUBLIC "-//W3C//DTD SVG 1.1//EN" "http://www.w3.org/Graphics/SVG/1.1/DTD/svg11.dtd">
<svg version="1.1" id="Capa_1" xmlns="http://www.w3.org/2000/svg" xmlns:xlink="http://www.w3.org/1999/xlink" x="0px" y="0px"
	 width="12px" height="12px" viewBox="102 4.1 12 12" enable-background="new 102 4.1 12 12" xml:space="preserve">
<g>
	<path fill="#F6F6F6" d="M114,4.1h-7.5v2.8h7.5C114,6,114,5.1,114,4.1z"/>
	<path fill="#F6F6F6" d="M114,8.6h-7.5v2.8h7.5C113.9,10.4,114,9.5,114,8.6z"/>
	<path fill="#F6F6F6" d="M113.9,13.3h-7.4v2.8h7.4C113.9,15.2,113.9,14.3,113.9,13.3z"/>
	<ellipse fill="#F6F6F6" cx="103.3" cy="5.6" rx="1.3" ry="1.4"/>
	<path fill="#F6F6F6" d="M103.3,8.5c-0.7,0-1.3,0.6-1.3,1.4c0,0.8,0.6,1.4,1.3,1.4c0.7,0,1.3-0.6,1.3-1.4
		C104.7,9.2,104.1,8.5,103.3,8.5z"/>
	<path fill="#F6F6F6" d="M103.3,13.3c-0.7,0-1.3,0.6-1.3,1.4c0,0.8,0.6,1.4,1.3,1.4c0.7,0,1.3-0.6,1.3-1.4
		C104.7,13.9,104.1,13.3,103.3,13.3z"/>
</g>
</svg>
