<svg xmlns="http://www.w3.org/2000/svg" width="200" height="78" viewbox="0 0 200 78">
  <g fill="#B1B3B6"><path d="M101.1 40.9c6.9-9.1 17.4-5.9 22-5.2 4.6.7 8.6-.2 8.6-.2s-2.9 1.3-5.8 1.4c-2.9.1-7.8-1.4-14.6-.4-6.8 1-9.2 5.7-9.2 5.7s.6-.5 3.7-.7c3.2-.2 9.2 1.5 9.2 1.5s-.4-.8-2-1.7c-1.6-.9-4.8-1.5-4.8-1.5s1.4-.2 3.9 0c2.4.2 9.3 1.7 15.2.4 7.3-1.6 11-8 10.3-8.2-.7-.2-1.2 1.2-4.3.9-3.1-.3-5.9-2.4-12.5-3.4s-11.6 1.9-11.6 1.9-6.5 3.6-8.1 9.5zM98.9 38.2s-3.2-5.4-8.7-8.1c-5.5-2.8-11.5-4.9-11.5-10.8s4.5-9 5.2-9.5c.6-.5 1.3.3 1.1.9-.2.6-1.2 2.4 1.4 4.4 2.6 2 7.1 5 9.3 8.8 2.3 3.8 2.3 6.5 2.3 6.5s-3.3-4.9-5.5-6.8c-2.9-2.5-6.2-4-7.3-5.5-1.8-2.4-1.8-4-1.8-4s-.5 4.2 2.6 6.9 7.1 5.2 10.1 9.3c3 4 2.8 7.9 2.8 7.9zM101 38.2s-.2-3.9 2.8-7.9c3-4.1 7-6.6 10.1-9.3 3.1-2.7 2.6-6.9 2.6-6.9s-.1 1.6-1.8 4c-1.1 1.5-4.4 3.1-7.3 5.5-2.2 1.9-5.5 6.8-5.5 6.8s.1-2.8 2.3-6.5c2.3-3.8 6.7-6.8 9.3-8.8 2.6-2 1.6-3.8 1.4-4.4-.2-.6.5-1.4 1.1-.9.6.5 5.2 3.6 5.2 9.5s-6 8.1-11.5 10.8c-5.5 2.7-8.7 8.1-8.7 8.1zM103.3 9.2s1.9-1.1 4.2.1c2.3 1.2 1.7 3.7 1.7 3.7s3.5-.5 3.1.8c-.2.7-3.5 2.9-6.4 5.6-2.9 2.7-5.2 8.1-5.2 8.1s-.2-3.1 1.4-6.6c1.6-3.5 4.7-6.8 4.4-7-.4-.2-1.5 1.2-2.8 2.8-1.3 1.7-3.3 5.6-3.3 5.6s0-3.9.1-6.5-.6-4.2-.6-4.2-.8 1.6-.6 4.2c.1 2.6.1 6.5.1 6.5s-2-3.9-3.3-5.6c-1.3-1.6-2.5-3-2.8-2.8-.4.2 2.7 3.5 4.4 7 1.6 3.5 1.4 6.6 1.4 6.6s-2.3-5.4-5.2-8.1c-2.9-2.7-6.1-4.9-6.3-5.6-.4-1.3 3.1-.8 3.1-.8s-.6-2.5 1.7-3.7c2.3-1.2 4.2-.1 4.2-.1s1.5-1.9 3.4-1.9c1.8 0 3.3 1.9 3.3 1.9zM98.9 40.9c-6.9-9.1-17.4-5.9-22-5.2-4.6.7-8.6-.2-8.6-.2s2.9 1.3 5.8 1.4c2.9.1 7.8-1.4 14.6-.4 6.8 1 9.2 5.7 9.2 5.7s-.6-.5-3.7-.7c-3.2-.2-9.2 1.5-9.2 1.5s.4-.8 2-1.7c1.6-.9 4.8-1.5 4.8-1.5s-1.4-.2-3.9 0c-2.4.2-9.3 1.7-15.2.4-7.3-1.6-11-8-10.3-8.2.7-.2 1.2 1.2 4.3.9 3.1-.3 5.9-2.4 12.5-3.4s11.6 1.9 11.6 1.9 6.5 3.6 8.1 9.5zM102.6 7l-.4-.4s-.2-.1.1-1.7c.3-1.6 1.1-3.2 1.1-3.2s-.4-.7 0-1.2c.4-.6 1.6-.6 2.2-.1.6.4 1.1 1.4.3 2.1-.7.7-2-.3-2-.3s-.3.5-.8 1.8c-.3 1.3-.5 3-.5 3zM105.9 8.3s-.6-.2-.5-.9c0-.7.2-1.6.9-2.9.7-1.3 1.9-1.7 2.5-1.2.6.5.8 1 .1 1.5-.7.5-1.5-.2-1.5-.2s-.3.1-.9 1.1c-.5.9-.6 2.6-.6 2.6zM93.4 8.3s-.1-1.6-.6-2.6c-.6-1-.9-1.1-.9-1.1s-.8.7-1.5.2c-.7-.5-.6-1 .1-1.5.6-.5 1.8-.2 2.5 1.2.7 1.3.9 2.2.9 2.9.1.7-.5.9-.5.9zM96.8 7s-.2-1.7-.6-3c-.4-1.4-.8-1.8-.8-1.8s-1.3 1-2 .3-.3-1.6.3-2.1c.6-.4 1.8-.4 2.2.1.4.6 0 1.2 0 1.2s.8 1.6 1.1 3.2c.3 1.6.1 1.7.1 1.7l-.3.4z"/></g>
  <g fill="#fff">
    <path d="M8.8 54.6h-.4c-.6-1.7-2.2-3.1-3.7-3.1-1.4 0-2.5.9-2.5 2 0 .6.3 1.1.7 1.6.7.7 4.2 2.6 5.1 3.5 1.1 1.1 1.6 2.2 1.6 3.5 0 3.3-3 4.4-4.8 4.4-1.8 0-2.9-.6-3.7-.6-.3 0-.6.2-.8.5h-.3v-4.5h.4c.4 2.2 1.9 3.8 4 3.8 1.6 0 2.8-.9 2.8-2.1 0-.5-.2-1.2-.8-1.7-1.2-1.2-3.8-2.3-5.1-3.5-.9-.9-1.3-2-1.3-3.2 0-2.6 1.9-4.4 4.7-4.4.6 0 1.1.1 1.5.2.5.1.9.2 1.3.2.2 0 .5-.1.8-.4h.4v3.8zM29 60.9h-.5c-.2-1.3-.8-1.9-2.1-1.9h-2.6v4.4c0 1.4.6 1.8 2.1 1.8h.9c1.8 0 2.7-1.4 3.2-2.8h.4l-.4 3.7h-11.4v-.4c1.7-.4 1.9-.9 1.9-2.4v-9.6c0-1.3-.3-1.8-1.9-2.1v-.4h11.3v3.3h-.4c-.5-1.9-1.1-2.5-2.7-2.5h-2.9v6.2h2.6c1.2 0 1.8-.5 2.1-1.9h.4v4.6zM41.5 53.6c0-1.4-.3-1.7-1.9-2.1v-.4h7.7c6.2 0 9 3.6 9 7.7 0 4.3-2.9 7.3-8 7.3h-8.7v-.4c1.8-.5 1.9-.9 1.9-2.4v-9.7zm3.3 9.8c0 1.2.6 1.8 2.4 1.8 3.5 0 5.5-2.4 5.5-6.6 0-3.6-1.7-6.7-5.9-6.7h-1.9v11.5zM75.5 60.9h-.5c-.2-1.3-.8-1.9-2.1-1.9h-2.6v4.4c0 1.4.6 1.8 2.1 1.8h.9c1.8 0 2.7-1.4 3.2-2.8h.4l-.3 3.6h-11.5v-.4c1.7-.4 1.9-.9 1.9-2.4v-9.6c0-1.3-.3-1.8-1.9-2.1v-.4h11.3v3.3h-.4c-.5-1.9-1.1-2.5-2.7-2.5h-2.9v6.2h2.6c1.2 0 1.8-.5 2.1-1.9h.5v4.7zM87.9 53.5c0-1.3-.3-1.7-1.9-2.1v-.4h7.1c4.2 0 5.8 1.7 5.8 3.8 0 1.5-.9 2.9-3 3.6v.1c1.7.4 3.3 5.2 4.6 6.5.4.4.7.5 1.4.6v.4h-4.3c-1.6-1.9-2.7-5.3-3.9-6.5-.7-.7-1.2-.7-2.5-.7v4.6c0 1.3.5 1.9 1.9 2.1v.4h-7.1v-.4c1.2-.1 1.9-.7 1.9-1.9v-10.1zm3.3 4.6c2.8.2 4.2-.7 4.2-3.2 0-1.9-1.1-3-3.1-3h-1v6.2zM128.6 63.3c.2 1.3.8 2.1 2.3 2.3v.4h-7.4v-.4c1.6-.4 1.9-1.4 1.6-3.3l-1.2-8.6h-.1l-4.9 12.3h-.5l-4.8-12.3h-.1l-1.3 8.8c-.3 1.7.1 2.9 1.8 3.1v.4h-5.4v-.4c1.6-.1 2.3-1 2.7-3.3l1.5-9.8c-.6-.6-1.4-1-2.2-1v-.4h5.4l3.9 9.9 4-9.9h5.1v.4c-1.5.3-1.9 1.1-1.7 2.4l1.3 9.4zM150.6 60.9h-.5c-.2-1.3-.8-1.9-2.1-1.9h-2.6v4.4c0 1.4.6 1.8 2.1 1.8h.9c1.8 0 2.7-1.4 3.2-2.8h.4l-.3 3.6h-11.4v-.4c1.7-.4 1.9-.9 1.9-2.4v-9.6c0-1.3-.3-1.8-1.9-2.1v-.4h11.3v3.3h-.6c-.5-1.9-1.1-2.5-2.7-2.5h-2.9v6.2h2.6c1.2 0 1.8-.5 2.1-1.9h.5v4.7zM163 53.5c0-1.3-.3-1.7-1.9-2.1v-.4h7.1c4.2 0 5.8 1.7 5.8 3.8 0 1.5-.9 2.9-3 3.6v.1c1.7.4 3.3 5.2 4.6 6.5.4.4.7.5 1.4.6v.4h-4.3c-1.6-1.9-2.7-5.3-3.9-6.5-.7-.7-1.2-.7-2.5-.7v4.6c0 1.3.5 1.9 1.9 2.1v.4h-7.1v-.4c1.2-.1 1.9-.7 1.9-1.9v-10.1zm3.3 4.6c2.8.2 4.2-.7 4.2-3.2 0-1.9-1.1-3-3.1-3h-1v6.2zM193.2 61h-5.3l-.7 2c-.5 1.4-.4 2.2 1.2 2.6v.4h-4.8v-.4c1.5-.3 2.2-1.7 2.8-3.4l4.3-11.5h2.1l4.6 12c.8 2.1 1.5 2.8 2.8 2.9v.4h-7.4v-.4c1.9-.4 1.9-.9 1.4-2.3l-1-2.3zm-2.7-7.2l-2.2 6.1h4.5l-2.3-6.1z"/>
  </g>
  <g fill="#F99D1C">
    <path d="M46.8 76.1h-.1c-.1-.4-.3-.6-.8-.6h-.8v1.5c0 .4.2.6.6.7v.1h-2.3v-.1c.5-.1.6-.3.6-.8v-3.2c0-.4-.1-.5-.6-.7v-.1h3.5l.1.9h-.1c-.2-.5-.5-.7-.9-.7h-.9v2h.8c.5 0 .6-.2.8-.6h.1v1.6zM53.2 78c-1.6 0-2.7-1.1-2.7-2.6s1.1-2.6 2.7-2.6 2.7 1.1 2.7 2.6-1.1 2.6-2.7 2.6zm0-5c-1 0-1.5.8-1.5 2.4 0 1.2.4 2.3 1.5 2.3.8 0 1.5-.7 1.5-2.3 0-1.4-.4-2.4-1.5-2.4zM64.1 77.9h-.1l-3.6-4.1v3.1c0 .5.2.7.7.8v.1h-1.7v-.1c.5-.1.7-.4.7-.9v-3.3c-.4-.4-.5-.5-.7-.5v-.1h1.5l2.9 3.3v-2.2c0-.6-.1-.8-.6-1v-.1h1.7v.1c-.6 0-.7.4-.7.8v4.1zM68.8 73.7c0-.5-.1-.6-.6-.7v-.1h2.6c2.1 0 3 1.2 3 2.6 0 1.4-1 2.4-2.7 2.4h-2.9v-.1c.6-.2.6-.3.6-.8v-3.3zm1.1 3.3c0 .4.2.6.8.6 1.2 0 1.8-.8 1.8-2.2 0-1.2-.6-2.2-2-2.2h-.6v3.8zM81.9 77.2c.3.4.5.5.7.5v.1h-2.3v-.1c.3-.1.5-.2.2-.5l-1.5-1.9v1.6c0 .5.1.6.6.8v.1h-2.4v-.1c.5-.1.6-.2.6-.7v-3.3c0-.4-.1-.6-.6-.7v-.1h2.4v.1c-.4.1-.6.2-.6.6v1.5l1.5-1.5c.2-.2.3-.5-.3-.6v-.1h2.1v.1c-.5 0-.9.3-1.5.8l-.9.9 2 2.5zM88.4 78c-1.6 0-2.7-1.1-2.7-2.6s1.1-2.6 2.7-2.6 2.7 1.1 2.7 2.6-1.1 2.6-2.7 2.6zm0-5c-1 0-1.5.8-1.5 2.4 0 1.2.4 2.3 1.5 2.3.8 0 1.5-.7 1.5-2.3 0-1.4-.4-2.4-1.5-2.4zM101.3 76.9c.1.4.3.7.8.8v.1h-2.5v-.1c.5-.1.6-.5.5-1.1l-.4-2.9-1.6 4.1h-.2l-1.6-4.1-.4 2.9c-.1.6 0 1 .6 1v.1h-1.8v-.1c.5 0 .8-.3.9-1.1l.5-3.3c-.2-.2-.5-.3-.7-.3v-.1h1.8l1.3 3.3 1.3-3.3h1.7v.2c-.5.1-.6.4-.6.8l.4 3.1zM112 76.9c.1.4.3.7.8.8v.1h-2.5v-.1c.5-.1.6-.5.5-1.1l-.4-2.9-1.6 4.1h-.2l-1.6-4.1-.4 2.9c-.1.6 0 1 .6 1v.1h-1.8v-.1c.5 0 .8-.3.9-1.1l.5-3.3c-.2-.2-.5-.3-.7-.3v-.1h1.8l1.3 3.3 1.3-3.3h1.7v.2c-.5.1-.6.4-.6.8l.4 3.1zM118 77c0 .4.1.6.6.7v.1h-2.4v-.1c.6-.2.6-.3.6-.8v-3.2c0-.4-.1-.6-.6-.7v-.1h2.4v.1c-.6.1-.6.3-.6.8v3.2zM125.3 74h-.1c-.2-.6-.7-1-1.2-1s-.8.3-.8.7c0 .2.1.4.2.5.2.2 1.4.9 1.7 1.2.4.4.5.7.5 1.2 0 1.1-1 1.5-1.6 1.5-.6 0-1-.2-1.2-.2-.1 0-.2.1-.3.2h-.1v-1.5h.1c.1.7.6 1.3 1.3 1.3.5 0 .9-.3.9-.7 0-.2-.1-.4-.3-.6l-1.7-1.2c-.3-.3-.4-.7-.4-1.1 0-.9.6-1.5 1.6-1.5.2 0 .4 0 .5.1.2 0 .3.1.4.1.1 0 .2 0 .3-.1h.1v1.1zM132.2 74h-.2c-.2-.6-.7-1-1.2-1s-.8.3-.8.7c0 .2.1.4.2.5.2.2 1.4.9 1.7 1.2.4.4.5.7.5 1.2 0 1.1-1 1.5-1.6 1.5-.6 0-1-.2-1.2-.2-.1 0-.2.1-.3.2h-.1v-1.5h.1c.1.7.6 1.3 1.3 1.3.5 0 .9-.3.9-.7 0-.2-.1-.4-.3-.6l-1.7-1.2c-.3-.3-.4-.7-.4-1.1 0-.9.6-1.5 1.6-1.5.2 0 .4 0 .5.1.2 0 .3.1.4.1.1 0 .2 0 .3-.1h.1v1.1zM137.9 77c0 .4.1.6.6.7v.1h-2.4v-.1c.6-.2.6-.3.6-.8v-3.2c0-.4-.1-.6-.6-.7v-.1h2.4v.1c-.6.1-.6.3-.6.8v3.2zM145 78c-1.6 0-2.7-1.1-2.7-2.6s1.1-2.6 2.7-2.6 2.7 1.1 2.7 2.6-1.2 2.6-2.7 2.6zm0-5c-1 0-1.5.8-1.5 2.4 0 1.2.4 2.3 1.5 2.3.8 0 1.5-.7 1.5-2.3 0-1.4-.4-2.4-1.5-2.4zM155.9 77.9h-.2l-3.6-4.1v3.1c0 .5.2.7.7.8v.1h-1.7v-.1c.5-.1.7-.4.7-.9v-3.3c-.4-.4-.5-.5-.7-.5v-.1h1.5l2.9 3.3v-2.2c0-.6-.1-.8-.6-1v-.1h1.7v.1c-.6 0-.7.4-.7.8v4.1z"/>
  </g>
</svg>
