<?xml version="1.0" encoding="utf-8"?>
<!-- Generator: Adobe Illustrator 18.0.0, SVG Export Plug-In . SVG Version: 6.00 Build 0)  -->
<!DOCTYPE svg PUBLIC "-//W3C//DTD SVG 1.1//EN" "http://www.w3.org/Graphics/SVG/1.1/DTD/svg11.dtd">
<svg version="1.1" id="Capa_1" xmlns="http://www.w3.org/2000/svg" xmlns:xlink="http://www.w3.org/1999/xlink" x="0px" y="0px"
	 width="15px" height="14px" viewBox="186 0.8 15 14" enable-background="new 186 0.8 15 14" xml:space="preserve">
<g>
	<path fill="#282828" d="M186.8,14.7c0.5,0.4,1.3,0.3,1.9-0.3l3.1-3.2c1,0.7,2.2,1.2,3.5,1.2c3.2,0,5.8-2.6,5.8-5.8
		c0-3.2-2.6-5.8-5.8-5.8c-3.2,0-5.8,2.6-5.8,5.8c0,1.2,0.3,2.2,0.9,3.1c-0.3,0.1-0.7,0.3-0.9,0.5l-3.5,3.7L186.8,14.7z M195.2,2.3
		c2.3,0,4.2,1.9,4.2,4.2c0,2.3-1.9,4.2-4.2,4.2c-2.3,0-4.2-1.9-4.2-4.2C191,4.2,192.9,2.3,195.2,2.3z"/>
</g>
</svg>
