<svg xmlns="http://www.w3.org/2000/svg" viewBox="0 0 20 18" enable-background="new 0 0 20 18" width="20" height="18">
  <path fill="#B2B3B6" d="M10.6 4.1l.4 1.4c.4-.3.8-.6 1.5-.8.6-.2 1.1-.3 1.6-.4l-.4-1.3c-.5.1-1 .2-1.6.4-.6.2-1 .5-1.5.7zm1 2.9l.4 1.3c.4-.3.8-.6 1.5-.8.6-.2 1.1-.3 1.6-.4l-.4-1.3c-.5.1-1 .2-1.6.4-.6.2-1.1.5-1.5.8zm.9 2.8l.4 1.4c.4-.3.8-.6 1.5-.8.6-.2 1.1-.4 1.6-.4l-.4-1.3c-.5.1-1 .2-1.6.4-.6.1-1.1.4-1.5.7zm-7.1 2.1l.4 1.3c.4-.2.9-.4 1.5-.6.6-.2 1.2-.2 1.6-.2l-.4-1.4c-.5 0-1 .1-1.6.3-.6.2-1.1.4-1.5.6zm-1.9-5.6l.5 1.3c.4-.2.9-.4 1.5-.6.6-.2 1.2-.2 1.6-.2l-.4-1.4c-.5 0-1 .1-1.6.3-.6.2-1.1.4-1.6.6zm1 2.8l.4 1.3c.4-.2.9-.4 1.5-.6.6-.2 1.2-.3 1.6-.2l-.4-1.4c-.5 0-1 .1-1.6.3-.6.2-1.1.4-1.5.6zm6.6-8.7c-1.7.6-2.6 1.7-3.1 2.5-.8-.4-2.2-.8-4-.2-2.5.8-4 2.6-4 2.6l4.1 12.4c.1.4.7.5.9.1.5-.7 1.5-1.6 3.3-2.2 1.7-.5 3 .1 3.7.6.3.2.7.1.8-.3.3-.8.9-2 2.6-2.6 1.8-.6 3.2-.4 4-.1.4.1.8-.2.6-.6l-4.1-12.4s-2.2-.6-4.8.2zm-.1 13.7c-.8-.2-1.9-.4-3.2 0-1.3.4-2.1.9-2.7 1.4l-3.2-9.8c.4-.4 1.2-1 2.7-1.5 1.4-.4 2.5-.1 3.3.4l3.1 9.5zm6.9-2.7c-.7 0-1.8 0-3 .4s-2.1 1.1-2.6 1.8l-3.1-9.5c.3-.8 1-1.8 2.4-2.2 1.5-.5 2.6-.4 3.1-.3l3.2 9.8z"/>
</svg>
