<svg xmlns="http://www.w3.org/2000/svg" width="20" height="20" viewbox="0 0 20 20">
  <path fill="#B2B3B6" d="M10 0c-5.5 0-10 4.5-10 10s4.5 10 10 10 10-4.5 10-10-4.5-10-10-10zm0 18c-4.1 0-8-3.9-8-8s3.9-8 8-8 8 3.9 8 8-3.9 8-8 8zm-1.3-13c0 .7.6 1.2 1.2 1.2.7 0 1.2-.6 1.2-1.2s-.4-1.3-1.1-1.3c-.7 0-1.3.6-1.3 1.3zm3.8 1.2c0 .7.6 1.2 1.2 1.2.7 0 1.2-.6 1.2-1.2.1-.6-.5-1.2-1.2-1.2-.6 0-1.2.6-1.2 1.2zm-7.5 0c0 .7.6 1.2 1.2 1.2.7 0 1.2-.6 1.2-1.2.1-.6-.5-1.2-1.2-1.2-.6 0-1.2.6-1.2 1.2zm3.7 7.5v1.3h2.5v-1.2l-1.2-6.3-1.3 6.2z"/>
</svg>