<svg xmlns="http://www.w3.org/2000/svg" width="15" height="20" viewbox="0 0 15 20">
  <path fill="#282828" d="M15 5l-4.6-5h-10.4v20h15v-15zm-14 14v-18h9v4h4v14h-13z"/>
  <path fill="#585858" d="M11.3 11.4s-.6-.1-1.4-.1h-.8c-1.7-1.3-3-2.5-3.8-3.2v-.2c.1-1 0-1.7-.3-2.1-.2-.1-.5-.2-.8-.1-.2.1-.6.3-.7.6-.1.5.1 1 .6 1.6l.5.5c-.2 1-.8 3.2-1 4.3-.6.3-1.2.7-1.6 1.1 0 .1-.2.5-.1.9.1.3.2.4.4.5h.1c.3 0 1.1-.2 1.6-1.8l.1-.4c1.5-.7 3.4-1 4.8-1 .7.5 1.4 1 2.1 1.4 0 0 .3.2.7.2.5 0 .9-.3 1-.8 0-.3 0-.6-.2-.8-.4-.5-1.2-.6-1.2-.6zm-8.9 3.2c0-.1 0-.3.1-.4.2-.3.5-.5.9-.8-.4 1.1-.8 1.2-1 1.2zm2.2-7.1c-.6-.6-.6-.9-.5-1 0-.2.2-.2.3-.2h.2c.1.1.2.6.2 1.3l-.2-.1zm-.3 4.8c.3-1 .6-2.5.8-3.4.7.6 1.7 1.6 3 2.6-1.1 0-2.6.3-3.8.8zm7.8.3c-.1.4-.3.4-.4.4-.2 0-.4-.1-.4-.1l-1.4-.9c.8 0 1.4 0 1.4.1.1 0 .6.1.8.3v.2z"/>
</svg>
