<svg xmlns="http://www.w3.org/2000/svg" viewBox="50 10 20 20" enable-background="new 50 10 20 20" width="20" height="20">
  <path fill="#B2B3B6" d="M66 29.1c0-2.3-2.2-3.4-4.3-4.3-2.1-.9-2.8-1.7-2.8-3.4 0-1 .6-.7.9-2.5.1-.8.7 0 .8-1.7 0-.7-.3-.9-.3-.9s.2-1 .2-1.8c.1-.8-.4-2.6-2.3-3.1-.3-.3-.6-.9.5-1.4-2.2-.1-2.8 1.1-4 1.9-1 .8-1.3 2-1.2 2.6.1.8.2 1.8.2 1.8s-.3.2-.3.9c.1 1.7.7 1 .8 1.7.3 1.8.9 1.5.9 2.5 0 1.7-.2 2.2-2.3 3.1-2.1 1-2.8 2.5-2.8 4.6v.9h16v-.9zm2.5-5.8c-1.1-.5-1.6-1-1.6-2.1 0-.6.4-.4.6-1.6.1-.5.4 0 .5-1.1 0-.4-.2-.6-.2-.6s.1-.7.1-1.2c0-.6-.4-2.3-2.3-2.3s-2.3 1.6-2.3 2.3c0 .5.1 1.2.1 1.2s-.2.1-.2.6c.1 1.1.4.6.5 1.1.2 1.2.6 1 .6 1.6 0 1.1-.4 1.6-1.8 2.2l-.2.1c1.6.7 4.2 2 4.8 4.5h2.9v-2.3c0-1-.3-1.9-1.5-2.4z"/>
</svg>
