<svg xmlns="http://www.w3.org/2000/svg" width="97.9" height="93.2" viewbox="0 0 97.9 93.2">
  <path fill="#C8CACD" d="M97.9 6.6v60.3c0 3.6-2.9 6.6-6.5 6.6h-32.6s-1.8 13.2 9.9 13.2v6.6h-39.5v-6.6c11.3 0 9.9-13.2 9.9-13.2h-32.6c-3.6 0-6.5-2.9-6.5-6.6v-60.3c0-3.7 2.9-6.6 6.5-6.6h84.9c3.6 0 6.5 2.9 6.5 6.6z"/>
  <circle cx="49.1" cy="51" r="1.3"/><polygon fill="#fff" stroke="#fff" stroke-miterlimit="10" points="9.7,10 9.7,61.1 88.1,61.1 88.1,61.1 88.1,10"/>
  <path fill="#C8CACD" d="M48.4 55c10.6 0 19.2-8.6 19.2-19.2s-8.6-19.1-19.2-19.1-19.2 8.6-19.2 19.2 8.7 19.1 19.2 19.1zm0-34.8c8.6 0 15.6 7 15.6 15.6s-7 15.6-15.6 15.6-15.6-7-15.6-15.6 7-15.6 15.6-15.6zm-9.5 8.4c0-1.3 1.1-2.4 2.4-2.4 1.3 0 2.4 1.1 2.4 2.4 0 1.3-1.1 2.4-2.4 2.4-1.4 0-2.4-1-2.4-2.4zm14.3 0c0-1.3 1.1-2.4 2.4-2.4 1.3 0 2.4 1.1 2.4 2.4 0 1.3-1.1 2.4-2.4 2.4-1.3 0-2.4-1-2.4-2.4zm-11.9 17.3l-3.1-1.9c2.1-3.5 5.9-5.8 10.3-5.8s8.2 2.3 10.3 5.8l-3.1 1.8c-1.5-2.4-4.1-4.1-7.2-4.1-3.1.1-5.8 1.7-7.2 4.2z"/>
</svg>
