<?xml version="1.0" encoding="utf-8"?>
<!-- Generator: Adobe Illustrator 18.0.0, SVG Export Plug-In . SVG Version: 6.00 Build 0)  -->
<!DOCTYPE svg PUBLIC "-//W3C//DTD SVG 1.1//EN" "http://www.w3.org/Graphics/SVG/1.1/DTD/svg11.dtd">
<svg version="1.1" id="Layer_1" xmlns:ev="http://www.w3.org/2001/xml-events"
	 xmlns="http://www.w3.org/2000/svg" xmlns:xlink="http://www.w3.org/1999/xlink" x="0px" y="0px" width="16px" height="12px"
	 viewBox="0 0 16 12" enable-background="new 0 0 16 12" xml:space="preserve">
<g transform="scale(NaN)">
	<path fill="#F6F6F6" d="M10.5,6.1L16,1.1v10L10.5,6.1z M0.4,0.3C0.6,0.1,0.8,0,1.1,0h13.7c0.3,0,0.6,0.1,0.8,0.3L8,7.2L0.4,0.3z
		 M0,11v-10l5.5,5.1L0,11z M8,8.4l2-1.8l5.7,5.1c-0.2,0.2-0.5,0.3-0.8,0.3H1.1c-0.3,0-0.6-0.1-0.8-0.3L6,6.6L8,8.4z"/>
</g>
</svg>
