<?xml version="1.0" encoding="utf-8"?>
<!-- Generator: Adobe Illustrator 18.0.0, SVG Export Plug-In . SVG Version: 6.00 Build 0)  -->
<!DOCTYPE svg PUBLIC "-//W3C//DTD SVG 1.1//EN" "http://www.w3.org/Graphics/SVG/1.1/DTD/svg11.dtd">
<svg version="1.1" id="Capa_1" xmlns="http://www.w3.org/2000/svg" xmlns:xlink="http://www.w3.org/1999/xlink" x="0px" y="0px"
	 width="12px" height="12px" viewBox="88.5 0 12 12" enable-background="new 88.5 0 12 12" xml:space="preserve">
<path fill="#F6F6F6" d="M94.5,0c-3.3,0-6,2.7-6,6s2.7,6,6,6c3.3,0,6-2.7,6-6S97.8,0,94.5,0z M94.5,2c0.7,0,1.4,0.2,2,0.5L91.1,8
	c-0.3-0.6-0.5-1.3-0.5-2C90.5,3.8,92.3,2,94.5,2z M94.5,10c-0.7,0-1.4-0.2-2-0.5L97.9,4c0.3,0.6,0.5,1.3,0.5,2
	C98.5,8.2,96.7,10,94.5,10z"/>
</svg>
