<?xml version="1.0" encoding="utf-8"?>
<!-- Generator: Adobe Illustrator 18.0.0, SVG Export Plug-In . SVG Version: 6.00 Build 0)  -->
<!DOCTYPE svg PUBLIC "-//W3C//DTD SVG 1.1//EN" "http://www.w3.org/Graphics/SVG/1.1/DTD/svg11.dtd">
<svg version="1.1" id="Capa_1" xmlns="http://www.w3.org/2000/svg" xmlns:xlink="http://www.w3.org/1999/xlink" x="0px" y="0px"
	 width="12px" height="12px" viewBox="0 1.9 12 12" enable-background="new 0 1.9 12 12" xml:space="preserve">
<g>
	<g>
		<path fill="#F9A500" d="M6,8.3c1.5,0,2.7-1.4,2.7-3.2c0-2.4-1.2-3.2-2.7-3.2c-1.5,0-2.7,0.7-2.7,3.2C3.3,6.9,4.5,8.3,6,8.3z"/>
		<path fill="#F9A500" d="M11.9,13l-1.4-3.1c-0.1-0.1-0.2-0.3-0.3-0.3L8.2,8.4c0,0-0.1,0-0.1,0C7.4,8.9,6.7,9.1,6,9.1
			c-0.7,0-1.4-0.2-2-0.7c0,0-0.1,0-0.1,0L1.7,9.5C1.6,9.6,1.5,9.7,1.4,9.9L0.1,13C0,13.2,0,13.4,0.1,13.6c0.1,0.2,0.3,0.3,0.6,0.3
			h10.6c0.2,0,0.4-0.1,0.6-0.3C12,13.4,12,13.2,11.9,13z"/>
	</g>
</g>
</svg>
